<mxfile host="app.diagrams.net" agent="Mozilla/5.0 (Macintosh; Intel Mac OS X 10_15_7) AppleWebKit/537.36 (KHTML, like Gecko) Chrome/126.0.0.0 Safari/537.36" version="24.7.6">
  <diagram name="Page-1" id="_h30_bT64LnCepsrYQAC">
    <mxGraphModel dx="1393" dy="866" grid="1" gridSize="10" guides="1" tooltips="1" connect="1" arrows="1" fold="1" page="1" pageScale="1" pageWidth="827" pageHeight="1169" math="0" shadow="0">
      <root>
        <mxCell id="0" />
        <mxCell id="1" parent="0" />
        <mxCell id="kCAUnty0OfXmz92qYy1a-37" value="" style="rounded=0;whiteSpace=wrap;html=1;" vertex="1" parent="1">
          <mxGeometry x="294" y="690" width="456" height="150" as="geometry" />
        </mxCell>
        <mxCell id="kCAUnty0OfXmz92qYy1a-1" value="" style="rounded=1;whiteSpace=wrap;html=1;" vertex="1" parent="1">
          <mxGeometry x="320" y="250" width="390" height="400" as="geometry" />
        </mxCell>
        <mxCell id="kCAUnty0OfXmz92qYy1a-11" style="edgeStyle=orthogonalEdgeStyle;rounded=0;orthogonalLoop=1;jettySize=auto;html=1;" edge="1" parent="1" source="kCAUnty0OfXmz92qYy1a-2" target="kCAUnty0OfXmz92qYy1a-3">
          <mxGeometry relative="1" as="geometry">
            <Array as="points">
              <mxPoint x="515" y="360" />
              <mxPoint x="390" y="360" />
            </Array>
          </mxGeometry>
        </mxCell>
        <mxCell id="kCAUnty0OfXmz92qYy1a-13" value="8000" style="edgeLabel;html=1;align=center;verticalAlign=middle;resizable=0;points=[];" vertex="1" connectable="0" parent="kCAUnty0OfXmz92qYy1a-11">
          <mxGeometry x="0.1892" y="1" relative="1" as="geometry">
            <mxPoint as="offset" />
          </mxGeometry>
        </mxCell>
        <mxCell id="kCAUnty0OfXmz92qYy1a-12" style="edgeStyle=orthogonalEdgeStyle;rounded=0;orthogonalLoop=1;jettySize=auto;html=1;" edge="1" parent="1" source="kCAUnty0OfXmz92qYy1a-2" target="kCAUnty0OfXmz92qYy1a-4">
          <mxGeometry relative="1" as="geometry">
            <Array as="points">
              <mxPoint x="515" y="390" />
              <mxPoint x="515" y="390" />
            </Array>
          </mxGeometry>
        </mxCell>
        <mxCell id="kCAUnty0OfXmz92qYy1a-14" value="8000" style="edgeLabel;html=1;align=center;verticalAlign=middle;resizable=0;points=[];" vertex="1" connectable="0" parent="kCAUnty0OfXmz92qYy1a-12">
          <mxGeometry x="-0.0333" y="-1" relative="1" as="geometry">
            <mxPoint x="1" y="11" as="offset" />
          </mxGeometry>
        </mxCell>
        <mxCell id="kCAUnty0OfXmz92qYy1a-2" value="Gateway" style="rounded=0;whiteSpace=wrap;html=1;" vertex="1" parent="1">
          <mxGeometry x="455" y="280" width="120" height="60" as="geometry" />
        </mxCell>
        <mxCell id="kCAUnty0OfXmz92qYy1a-3" value="Auth Service" style="rounded=0;whiteSpace=wrap;html=1;" vertex="1" parent="1">
          <mxGeometry x="340" y="400" width="100" height="60" as="geometry" />
        </mxCell>
        <mxCell id="kCAUnty0OfXmz92qYy1a-20" style="edgeStyle=orthogonalEdgeStyle;rounded=0;orthogonalLoop=1;jettySize=auto;html=1;entryX=0.5;entryY=0;entryDx=0;entryDy=0;" edge="1" parent="1" source="kCAUnty0OfXmz92qYy1a-4" target="kCAUnty0OfXmz92qYy1a-7">
          <mxGeometry relative="1" as="geometry" />
        </mxCell>
        <mxCell id="kCAUnty0OfXmz92qYy1a-27" value="5672" style="edgeLabel;html=1;align=center;verticalAlign=middle;resizable=0;points=[];" vertex="1" connectable="0" parent="kCAUnty0OfXmz92qYy1a-20">
          <mxGeometry x="0.05" y="1" relative="1" as="geometry">
            <mxPoint x="-13" as="offset" />
          </mxGeometry>
        </mxCell>
        <mxCell id="kCAUnty0OfXmz92qYy1a-4" value="Task Service" style="rounded=0;whiteSpace=wrap;html=1;" vertex="1" parent="1">
          <mxGeometry x="470" y="400" width="100" height="60" as="geometry" />
        </mxCell>
        <mxCell id="kCAUnty0OfXmz92qYy1a-5" value="postgres" style="shape=cylinder3;whiteSpace=wrap;html=1;boundedLbl=1;backgroundOutline=1;size=15;" vertex="1" parent="1">
          <mxGeometry x="400" y="520" width="60" height="80" as="geometry" />
        </mxCell>
        <mxCell id="kCAUnty0OfXmz92qYy1a-9" style="edgeStyle=orthogonalEdgeStyle;rounded=0;orthogonalLoop=1;jettySize=auto;html=1;" edge="1" parent="1" source="kCAUnty0OfXmz92qYy1a-6" target="kCAUnty0OfXmz92qYy1a-2">
          <mxGeometry relative="1" as="geometry">
            <Array as="points">
              <mxPoint x="45" y="300" />
            </Array>
          </mxGeometry>
        </mxCell>
        <mxCell id="kCAUnty0OfXmz92qYy1a-6" value="User" style="shape=umlActor;verticalLabelPosition=bottom;verticalAlign=top;html=1;outlineConnect=0;" vertex="1" parent="1">
          <mxGeometry x="30" y="370" width="30" height="60" as="geometry" />
        </mxCell>
        <mxCell id="kCAUnty0OfXmz92qYy1a-24" style="edgeStyle=orthogonalEdgeStyle;rounded=0;orthogonalLoop=1;jettySize=auto;html=1;" edge="1" parent="1" source="kCAUnty0OfXmz92qYy1a-7" target="kCAUnty0OfXmz92qYy1a-8">
          <mxGeometry relative="1" as="geometry">
            <Array as="points">
              <mxPoint x="600" y="510" />
              <mxPoint x="645" y="510" />
            </Array>
          </mxGeometry>
        </mxCell>
        <mxCell id="kCAUnty0OfXmz92qYy1a-28" value="5672" style="edgeLabel;html=1;align=center;verticalAlign=middle;resizable=0;points=[];" vertex="1" connectable="0" parent="kCAUnty0OfXmz92qYy1a-24">
          <mxGeometry x="-0.088" relative="1" as="geometry">
            <mxPoint as="offset" />
          </mxGeometry>
        </mxCell>
        <mxCell id="kCAUnty0OfXmz92qYy1a-7" value="rabbitmq" style="shape=process;whiteSpace=wrap;html=1;backgroundOutline=1;" vertex="1" parent="1">
          <mxGeometry x="500" y="540" width="120" height="60" as="geometry" />
        </mxCell>
        <mxCell id="kCAUnty0OfXmz92qYy1a-8" value="Notification Service" style="rounded=0;whiteSpace=wrap;html=1;" vertex="1" parent="1">
          <mxGeometry x="600" y="400" width="90" height="60" as="geometry" />
        </mxCell>
        <mxCell id="kCAUnty0OfXmz92qYy1a-10" value="localhost&lt;br&gt;port: 8000" style="text;html=1;align=center;verticalAlign=middle;resizable=0;points=[];autosize=1;strokeColor=none;fillColor=none;" vertex="1" parent="1">
          <mxGeometry x="150" y="260" width="80" height="40" as="geometry" />
        </mxCell>
        <mxCell id="kCAUnty0OfXmz92qYy1a-16" value="" style="endArrow=none;html=1;rounded=0;entryX=0.5;entryY=1;entryDx=0;entryDy=0;" edge="1" parent="1" source="kCAUnty0OfXmz92qYy1a-5" target="kCAUnty0OfXmz92qYy1a-3">
          <mxGeometry width="50" height="50" relative="1" as="geometry">
            <mxPoint x="350" y="540" as="sourcePoint" />
            <mxPoint x="400" y="490" as="targetPoint" />
          </mxGeometry>
        </mxCell>
        <mxCell id="kCAUnty0OfXmz92qYy1a-25" value="5432" style="edgeLabel;html=1;align=center;verticalAlign=middle;resizable=0;points=[];" vertex="1" connectable="0" parent="kCAUnty0OfXmz92qYy1a-16">
          <mxGeometry x="0.1437" y="-2" relative="1" as="geometry">
            <mxPoint as="offset" />
          </mxGeometry>
        </mxCell>
        <mxCell id="kCAUnty0OfXmz92qYy1a-17" value="" style="endArrow=none;html=1;rounded=0;entryX=0.5;entryY=1;entryDx=0;entryDy=0;exitX=0.855;exitY=0;exitDx=0;exitDy=4.35;exitPerimeter=0;" edge="1" parent="1" source="kCAUnty0OfXmz92qYy1a-5" target="kCAUnty0OfXmz92qYy1a-4">
          <mxGeometry width="50" height="50" relative="1" as="geometry">
            <mxPoint x="450" y="530" as="sourcePoint" />
            <mxPoint x="500" y="480" as="targetPoint" />
          </mxGeometry>
        </mxCell>
        <mxCell id="kCAUnty0OfXmz92qYy1a-26" value="5432" style="edgeLabel;html=1;align=center;verticalAlign=middle;resizable=0;points=[];" vertex="1" connectable="0" parent="kCAUnty0OfXmz92qYy1a-17">
          <mxGeometry x="-0.1722" relative="1" as="geometry">
            <mxPoint as="offset" />
          </mxGeometry>
        </mxCell>
        <mxCell id="kCAUnty0OfXmz92qYy1a-29" value="Docker Network: backend" style="text;html=1;align=center;verticalAlign=middle;resizable=0;points=[];autosize=1;strokeColor=none;fillColor=none;" vertex="1" parent="1">
          <mxGeometry x="425" y="200" width="160" height="30" as="geometry" />
        </mxCell>
        <mxCell id="kCAUnty0OfXmz92qYy1a-30" value="To view API docs for task and auth service, map port for them on localhost&lt;br&gt;&lt;br&gt;Similary for rabbitMQ, we can view its management console on port 15672" style="rounded=0;whiteSpace=wrap;html=1;" vertex="1" parent="1">
          <mxGeometry x="40" y="500" width="190" height="150" as="geometry" />
        </mxCell>
        <mxCell id="kCAUnty0OfXmz92qYy1a-32" value="Postgres data" style="rounded=1;whiteSpace=wrap;html=1;" vertex="1" parent="1">
          <mxGeometry x="335" y="730" width="120" height="60" as="geometry" />
        </mxCell>
        <mxCell id="kCAUnty0OfXmz92qYy1a-33" value="RabbitMQ queue data" style="rounded=1;whiteSpace=wrap;html=1;" vertex="1" parent="1">
          <mxGeometry x="570" y="730" width="130" height="60" as="geometry" />
        </mxCell>
        <mxCell id="kCAUnty0OfXmz92qYy1a-34" value="" style="endArrow=classic;startArrow=classic;html=1;rounded=0;exitX=0.5;exitY=0;exitDx=0;exitDy=0;entryX=0.5;entryY=1;entryDx=0;entryDy=0;entryPerimeter=0;" edge="1" parent="1" source="kCAUnty0OfXmz92qYy1a-32" target="kCAUnty0OfXmz92qYy1a-5">
          <mxGeometry width="50" height="50" relative="1" as="geometry">
            <mxPoint x="370" y="720" as="sourcePoint" />
            <mxPoint x="420" y="670" as="targetPoint" />
          </mxGeometry>
        </mxCell>
        <mxCell id="kCAUnty0OfXmz92qYy1a-36" value="" style="endArrow=classic;startArrow=classic;html=1;rounded=0;entryX=0.5;entryY=1;entryDx=0;entryDy=0;exitX=0.5;exitY=0;exitDx=0;exitDy=0;" edge="1" parent="1" source="kCAUnty0OfXmz92qYy1a-33" target="kCAUnty0OfXmz92qYy1a-7">
          <mxGeometry width="50" height="50" relative="1" as="geometry">
            <mxPoint x="630" y="720" as="sourcePoint" />
            <mxPoint x="680" y="670" as="targetPoint" />
          </mxGeometry>
        </mxCell>
        <mxCell id="kCAUnty0OfXmz92qYy1a-38" value="Docker Volumes" style="text;html=1;align=center;verticalAlign=middle;whiteSpace=wrap;rounded=0;" vertex="1" parent="1">
          <mxGeometry x="467.5" y="840" width="105" height="30" as="geometry" />
        </mxCell>
      </root>
    </mxGraphModel>
  </diagram>
</mxfile>
